<svg width="131" height="49" viewBox="0 0 131 49" fill="none" xmlns="http://www.w3.org/2000/svg">
<path d="M4.40341 43V6.63636H26.2074V10.5426H8.80682V22.8295H24.5739V26.7358H8.80682V43H4.40341Z" fill="#1A45E2"/>
<path d="M48.0202 12.9412L31 8L34.5 28.5M48.0202 12.9412L49 23.5M48.0202 12.9412L65 8L61.5 30L49 23.5M49 23.5L50 33L61.5 40.5M49 23.5L41.75 26L34.5 28.5M45.5 34L36.5 42L34.5 28.5" stroke="#1A45E2" stroke-width="4"/>
<path d="M80.1335 43.5682C77.8608 43.5682 75.8544 42.9941 74.1143 41.8459C72.3743 40.6858 71.013 39.0523 70.0305 36.9453C69.0481 34.8265 68.5568 32.3229 68.5568 29.4347C68.5568 26.5701 69.0481 24.0843 70.0305 21.9773C71.013 19.8703 72.3802 18.2427 74.1321 17.0945C75.884 15.9463 77.9081 15.3722 80.2045 15.3722C81.9801 15.3722 83.3828 15.6681 84.4126 16.2599C85.4543 16.84 86.2474 17.5028 86.7919 18.2486C87.3482 18.9825 87.7803 19.5862 88.0881 20.0597H88.4432V6.63636H92.6335V43H88.5852V38.8097H88.0881C87.7803 39.3068 87.3423 39.9342 86.7741 40.6918C86.206 41.4375 85.3951 42.1063 84.3416 42.6982C83.2881 43.2782 81.8854 43.5682 80.1335 43.5682ZM80.7017 39.804C82.3826 39.804 83.803 39.366 84.9631 38.4901C86.1231 37.6023 87.005 36.3771 87.6087 34.8146C88.2124 33.2403 88.5142 31.4233 88.5142 29.3636C88.5142 27.3277 88.2183 25.5462 87.6264 24.0192C87.0346 22.4804 86.1586 21.2848 84.9986 20.4325C83.8385 19.5684 82.4063 19.1364 80.7017 19.1364C78.9261 19.1364 77.4465 19.5921 76.2628 20.5036C75.0909 21.4032 74.209 22.6283 73.6172 24.179C73.0372 25.7178 72.7472 27.446 72.7472 29.3636C72.7472 31.3049 73.0431 33.0687 73.6349 34.6548C74.2386 36.2292 75.1264 37.4839 76.2983 38.419C77.482 39.3423 78.9498 39.804 80.7017 39.804Z" fill="#1A45E2"/>
<path d="M101.895 43H97.2784L110.631 6.63636H115.176L128.528 43H123.912L113.045 12.3892H112.761L101.895 43ZM103.599 28.7955H122.207V32.7017H103.599V28.7955Z" fill="#1A45E2"/>
</svg>
